<svg xmlns="http://www.w3.org/2000/svg" viewBox="0 0 240 240">
  <!-- off-white halo so black linework survives dark backgrounds -->
  <g stroke="#fffdf8" stroke-width="26" stroke-linecap="round" stroke-linejoin="round" fill="none">
    <path d="M97 74 C 88 56 76 40 61 28"/>
    <path d="M132 73 C 140 52 154 36 172 26"/>
    <circle cx="59" cy="26" r="7"/>
    <circle cx="174" cy="24" r="7"/>
    <path d="M86 199 L 80 218"/>
    <path d="M154 199 L 160 218"/>
    <path d="M46 94 C 44 79 54 72 68 73 C 110 70 152 71 176 73 C 191 72 199 81 198 95 C 201 124 201 156 197 176 C 199 190 189 198 175 197 C 130 200 92 199 64 197 C 50 199 41 190 43 176 C 40 148 41 118 46 94 Z" fill="#fffdf8"/>
  </g>
  <g stroke="#141414" stroke-width="10" stroke-linecap="round" stroke-linejoin="round">
    <path d="M97 74 C 88 56 76 40 61 28" fill="none"/>
    <path d="M132 73 C 140 52 154 36 172 26" fill="none"/>
    <circle cx="59" cy="26" r="7" fill="#141414"/>
    <circle cx="174" cy="24" r="7" fill="#141414"/>
    <path d="M86 199 L 80 218" fill="none"/>
    <path d="M154 199 L 160 218" fill="none"/>
    <path d="M46 94 C 44 79 54 72 68 73 C 110 70 152 71 176 73 C 191 72 199 81 198 95 C 201 124 201 156 197 176 C 199 190 189 198 175 197 C 130 200 92 199 64 197 C 50 199 41 190 43 176 C 40 148 41 118 46 94 Z" fill="#e50914"/>
    <path d="M68 98 C 67 90 72 86 80 87 C 110 85 140 85 162 87 C 170 86 175 91 174 98 C 176 119 176 145 174 162 C 175 170 170 175 162 174 C 134 176 106 176 80 174 C 72 175 67 170 68 162 C 66 140 66 118 68 98 Z" fill="#fffdf8"/>
  </g>
  <g fill="#141414">
    <path d="M96 126 A 8 8 0 0 0 112 126 Z"/>
    <path d="M132 126 A 8 8 0 0 0 148 126 Z"/>
  </g>
  <g stroke="#141414" stroke-width="7" stroke-linecap="round" fill="none">
    <path d="M93 126 L 115 126"/>
    <path d="M129 126 L 151 126"/>
    <path d="M110 152 C 118 149 128 149 134 152"/>
  </g>
</svg>
